# xmcd
#
# Track frame offsets: 
#        150
#        16827
#        32191
#        48642
#        63215
#        77407
#        93598
#        110193
#        125640
#        140420
#        155429
#        174310
#        189532
#        204915
#
# Disc length: 2949 seconds
#
# Revision: 0
# Processed by: cddbd v1.5.2PL0 Copyright (c) Steve Scherf et al.
# Submitted via: ExactAudioCopy v0.99pb4
#
DISCID=ba0b830e
DTITLE=Christoff - Altijd Onderweg
DYEAR=2014
DGENRE=Chanson
TTITLE0=Voor Jou
TTITLE1=M'n Beste Vriend
TTITLE2=In De Zevende Hemel
TTITLE3=Als Een Vlinder
TTITLE4=Jij Bent Alles Wat Ik Wil
TTITLE5=Ga
TTITLE6=Kleine Jongen
TTITLE7='t Is Nog Niet Voorbij
TTITLE8=Echte Vrienden
TTITLE9=Je Hebt Mij Betoverd
TTITLE10=Mijn Engel Hou Me Vast (Met Kathleen)
TTITLE11=Een Ster (Akoestisch 2014)
TTITLE12=Ich Hab Mich Auf Den Ersten Blick Verliebt
TTITLE13=Viel Schöner Kann Es Gar Nicht Sein (Met Florian Silbereisen)
EXTD=
EXTT0=
EXTT1=
EXTT2=
EXTT3=
EXTT4=
EXTT5=
EXTT6=
EXTT7=
EXTT8=
EXTT9=
EXTT10=
EXTT11=
EXTT12=
EXTT13=
PLAYORDER=
